<svg xmlns="http://www.w3.org/2000/svg" xmlns:xlink="http://www.w3.org/1999/xlink" id="f1410098-b6ef-424e-beee-8c1519bc1d1f" width="915.688" height="679.276" data-name="Layer 1" viewBox="0 0 915.688 679.276"><defs><linearGradient id="b5076013-d6c0-4649-8f63-d536232108ef" x1="549.234" x2="549.234" y1="734.772" y2="126.569" gradientTransform="matrix(0.97485, 0.30762, -0.30291, 0.99, 144.20301, -171.28919)" gradientUnits="userSpaceOnUse"><stop offset="0" stop-color="gray" stop-opacity=".25"/><stop offset=".535" stop-color="gray" stop-opacity=".12"/><stop offset="1" stop-color="gray" stop-opacity=".1"/></linearGradient><linearGradient id="be72c466-93ff-4e9c-a64c-30b94918ee69" x1="549.323" x2="549.323" y1="679.276" y2="233.836" gradientTransform="matrix(1, 0, 0, 1, 0, 0)" xlink:href="#b5076013-d6c0-4649-8f63-d536232108ef"/></defs><title>Credit card</title><rect width="728.622" height="445.002" x="184.857" y="201.53" fill="url(#b5076013-d6c0-4649-8f63-d536232108ef)" rx="27.5" transform="translate(-243.24579 71.69262) rotate(-17.2615)"/><rect width="713.756" height="429.252" x="193.72" y="205.56" fill="#fff" rx="27.5" transform="translate(-242.04064 71.94381) rotate(-17.2615)"/><rect width="713.756" height="61.559" x="155.952" y="267.861" fill="#266afb" transform="translate(-207.67506 55.26252) rotate(-17.2615)"/><rect width="181.351" height="26.62" x="303.669" y="610.488" fill="#bdbdbd" transform="translate(-309.4966 34.74867) rotate(-17.2615)"/><rect width="314.452" height="26.62" x="287.342" y="547.841" fill="#e0e0e0" transform="translate(-288.64532 46.83008) rotate(-17.2615)"/><rect width="732.73" height="445.44" x="182.958" y="233.836" fill="url(#be72c466-93ff-4e9c-a64c-30b94918ee69)" rx="27.5"/><rect width="713.756" height="429.252" x="191.277" y="238.378" fill="#fff" rx="27.5"/><rect width="20.797" height="59.064" x="361.013" y="446.76" fill="#e0e0e0"/><rect width="20.797" height="59.064" x="387.633" y="446.76" fill="#e0e0e0"/><rect width="20.797" height="59.064" x="414.253" y="446.76" fill="#e0e0e0"/><rect width="20.797" height="59.064" x="460.839" y="446.76" fill="#e0e0e0"/><rect width="20.797" height="59.064" x="487.459" y="446.76" fill="#e0e0e0"/><rect width="20.797" height="59.064" x="514.079" y="446.76" fill="#e0e0e0"/><rect width="20.797" height="59.064" x="560.665" y="446.76" fill="#e0e0e0"/><rect width="20.797" height="59.064" x="587.285" y="446.76" fill="#e0e0e0"/><rect width="20.797" height="59.064" x="613.905" y="446.76" fill="#e0e0e0"/><rect width="20.797" height="59.064" x="660.491" y="446.76" fill="#e0e0e0"/><rect width="20.797" height="59.064" x="687.111" y="446.76" fill="#e0e0e0"/><rect width="20.797" height="59.064" x="713.731" y="446.76" fill="#e0e0e0"/><rect width="124" height="68" x="236.688" y="350.836" fill="#266afb"/><rect width="76" height="76" x="718.688" y="573.836" fill="#266afb" opacity=".1"/><rect width="76" height="76" x="756.688" y="573.836" fill="#266afb" opacity=".1"/></svg>